<svg xmlns="http://www.w3.org/2000/svg" width="768" height="768" viewBox="0 0 768 768"><path d="M384.001 27.424C596.097 27.424 768 203.36 768 420.447c0 127.04-58.88 240.063-150.24 311.84-4.928 5.12-11.744 8.288-19.264 8.288-14.912 0-27.008-12.384-27.008-27.648 0-8.96 4.16-16.96 10.656-22.016 29.024-22.656 54.464-49.92 75.008-80.928L624 590.399c-11.488-6.72-15.36-21.76-8.768-33.536 6.592-11.744 21.28-15.744 32.768-8.96l33.152 19.552c17.696-37.44 28.864-78.752 31.936-122.432h-38.08c-13.28 0-24-10.976-24-24.576 0-13.568 10.72-24.544 24-24.544h38.08c-3.072-43.776-14.24-85.28-32.096-122.848L648 292.575c-11.488 6.72-26.176 2.752-32.768-8.96-6.592-11.776-2.72-26.816 8.768-33.6l32.928-19.392c-23.488-35.328-53.248-65.792-87.744-89.728l-19.136 33.92c-6.592 11.744-21.312 15.744-32.768 8.96-11.488-6.72-15.36-21.76-8.768-33.536l19.104-33.92C491.04 98.207 450.592 86.751 408 83.615v39.008c0 13.568-10.72 24.544-24 24.544s-24-10.976-24-24.544V83.615c-42.816 3.136-83.328 14.592-120 32.864l19.04 33.76c6.624 11.744 2.72 26.784-8.768 33.568-11.456 6.72-26.176 2.752-32.768-8.992l-18.976-33.696c-34.368 23.904-64.064 54.304-87.488 89.504l32.928 19.424c11.488 6.72 15.36 21.792 8.768 33.536s-21.28 15.744-32.768 8.96l-32.992-19.488c-17.792 37.632-29.024 79.072-32.096 122.848h38.08c13.28 0 24 10.976 24 24.544 0 13.6-10.72 24.576-24 24.576H54.88c2.976 43.616 14.176 84.992 31.936 122.432l33.152-19.584c11.488-6.72 26.176-2.752 32.768 8.992s2.72 26.784-8.768 33.536l-33.152 19.584c20.032 30.24 44.8 57.056 73.12 79.136 7.968 4.864 13.28 13.664 13.28 23.808 0 15.264-12.064 27.648-27.008 27.648-6.208 0-12-2.24-16.576-5.856C60.288 663.199 0 549.023 0 420.48 0 203.329 171.904 27.425 383.999 27.425zM502.21 295.167c10.432-8.352 25.504-6.432 33.664 4.224 8.192 10.688 6.304 26.112-4.128 34.464l-94.72 75.84c.672 3.392.96 6.848.96 10.464 0 30.528-24.128 55.264-53.984 55.264s-54.016-24.736-54.016-55.264c0-30.56 24.16-55.264 54.016-55.264 8.544 0 16.736 1.984 23.936 5.664z" fill="#fff"/></svg>